<svg width="287" height="318" viewBox="0 0 287 318" fill="none" xmlns="http://www.w3.org/2000/svg">
<path d="M143.5 235.343C146.596 235.343 149.106 232.562 149.106 229.131C149.106 225.701 146.596 222.92 143.5 222.92C140.404 222.92 137.894 225.701 137.894 229.131C137.894 232.562 140.404 235.343 143.5 235.343Z" fill="#3D84B8"/>
<path d="M287 170.295V150.957C287 148.648 285.966 146.502 284.235 145.217C282.505 143.932 280.321 143.687 278.393 144.566L266.601 149.938V141.03C266.601 138.501 265.474 136.141 263.587 134.717C261.7 133.293 259.305 132.998 257.182 133.924L252.103 136.142V124.205C252.103 122.004 251.11 119.973 249.448 118.773C247.773 117.564 245.679 117.377 243.845 118.274C240.153 120.079 234.555 120.713 227.65 120.104C216.499 119.122 205.324 119.918 194.436 122.468C163.728 129.661 149.5 142.932 143.507 150.763C142.204 149.054 140.516 147.093 138.339 144.984C129.816 136.726 118.104 130.168 103.529 125.491C101.3 124.776 98.9657 126.198 98.3205 128.671C97.6747 131.142 98.9595 133.726 101.19 134.441C128.434 143.182 137.462 156.827 139.295 160.105V164.605C112.993 145.31 80.5982 137.818 79.115 137.482C76.842 136.97 74.6206 138.594 74.1559 141.114C73.6912 143.635 75.1581 146.095 77.4328 146.612C77.8017 146.695 113.798 155.042 139.295 175.978V181.713L115.072 171.139L43.3067 139.812V128.182C47.8432 129.564 53.4437 129.972 60.0172 129.392C67.7432 128.712 75.5421 128.955 83.1952 130.115C85.4935 130.466 87.6168 128.68 87.9307 126.13C88.2458 123.581 86.6353 121.232 84.3348 120.883C76.0836 119.633 67.6787 119.371 59.3501 120.104C52.4487 120.713 46.8483 120.079 43.1554 118.274C41.3218 117.377 39.2254 117.564 37.5522 118.773C35.8907 119.973 34.898 122.004 34.898 124.205V136.142L29.8183 133.924C27.6949 132.998 25.3003 133.293 23.4135 134.717C21.5267 136.141 20.4 138.501 20.4 141.03V149.938L8.60776 144.566C6.68004 143.687 4.49559 143.932 2.76518 145.217C1.03365 146.502 0 148.648 0 150.957V170.295C0 172.894 1.29542 175.248 3.3801 176.437L94.3854 228.389L3.86553 269.624C1.51684 270.694 0 273.202 0 276.015V309.49C0 311.795 1.03085 313.939 2.75845 315.225C3.80387 316.003 5.01465 316.401 6.23496 316.401C7.0315 316.401 7.83196 316.232 8.59318 315.888L31.3419 305.6L46.0433 310.024C47.5512 310.478 49.1454 310.292 50.5344 309.499L143.5 256.427L193.367 284.894C195.429 286.071 197.966 285.173 199.03 282.886C200.094 280.599 199.282 277.79 197.218 276.611L152.68 251.187L182.799 233.993L278.591 277.629V305.906L258.157 296.665C256.896 296.095 255.479 295.999 254.165 296.394L239.567 300.788L214.706 286.596C212.643 285.417 210.107 286.315 209.043 288.603C207.979 290.89 208.791 293.7 210.855 294.878L236.466 309.498C237.855 310.292 239.451 310.478 240.957 310.024L255.659 305.599L278.407 315.886C279.169 316.23 279.969 316.4 280.766 316.4C281.985 316.4 283.197 316.002 284.242 315.224C285.969 313.939 287 311.795 287 309.488V276.014C287 273.201 285.483 270.692 283.134 269.624L192.615 228.389L283.619 176.438C285.705 175.248 287 172.894 287 170.295ZM147.705 175.978C173.202 155.042 209.198 146.695 209.567 146.612C211.841 146.097 213.309 143.637 212.845 141.116C212.381 138.595 210.159 136.969 207.885 137.482C206.402 137.818 174.008 145.31 147.705 164.605V160.1C148.555 158.568 150.952 154.794 155.956 150.37C162.531 144.558 174.845 136.581 196.175 131.584C206.273 129.218 216.639 128.481 226.983 129.392C233.557 129.971 239.157 129.563 243.694 128.181V139.812L171.928 171.139L147.705 181.712V175.978H147.705ZM28.8087 143.499L141.958 192.89C142.948 193.322 144.051 193.322 145.041 192.89L258.191 143.499V153.769L143.5 206.015L28.8087 153.769V143.499ZM8.40932 168.827V154.551L132.443 211.053L104.597 223.738L8.40932 168.827ZM7.06177 278.242L7.07354 278.238C7.06962 278.239 7.06569 278.241 7.06177 278.242ZM278.591 168.827L47.4324 300.787L32.8346 296.393C31.5201 295.998 30.1019 296.094 28.8435 296.664L8.40876 305.905V277.629L278.59 154.551V168.827H278.591Z" fill="#3D84B8"/>
<path d="M164.556 42.9534C167.652 42.9534 170.162 40.1724 170.162 36.7418C170.162 33.3113 167.652 30.5303 164.556 30.5303C161.46 30.5303 158.95 33.3113 158.95 36.7418C158.95 40.1724 161.46 42.9534 164.556 42.9534Z" fill="#3D84B8"/>
<path d="M182.786 42.8654C185.826 42.217 187.817 38.9604 187.231 35.5916C186.646 32.2228 183.707 30.0175 180.667 30.6659C177.626 31.3142 175.636 34.5708 176.221 37.9396C176.806 41.3084 179.745 43.5137 182.786 42.8654Z" fill="#3D84B8"/>
<path d="M212.088 105.781C214.411 105.781 216.293 103.696 216.293 101.123V47.6862C216.293 45.113 214.411 43.0273 212.088 43.0273C209.766 43.0273 207.884 45.113 207.884 47.6862V101.123C207.884 103.696 209.766 105.781 212.088 105.781Z" fill="#3D84B8"/>
<path d="M78.1929 47.6862V101.123C78.1929 103.696 80.0752 105.782 82.3975 105.782C84.7199 105.782 86.6022 103.696 86.6022 101.123V47.6862C86.6022 45.113 84.7199 43.0273 82.3975 43.0273C80.0752 43.0273 78.1929 45.113 78.1929 47.6862Z" fill="#3D84B8"/>
<path d="M107.249 108.76C110.392 110.685 114.483 111.586 118.756 111.586C126.312 111.586 134.438 108.764 138.892 103.788C141.083 101.34 142.748 98.2071 143.814 94.6253C148.947 98.1022 154.815 99.9791 160.614 99.9791C175.717 99.9791 190.201 89.713 190.052 71.6995C189.984 63.5085 186.934 55.9659 182.094 52.0139C179.332 49.7606 174.666 47.5302 168.117 49.7103C159.293 52.6462 155.855 62.0663 157.731 69.1107C158.905 73.5211 161.617 76.8893 165.576 78.8514C170.298 81.1929 175.816 81.0544 180.226 79.7395C178.092 84.8909 173.127 89.4273 162.625 90.5546C156.801 91.1782 150.641 89.0714 145.729 84.771C145.553 84.617 145.367 84.4865 145.178 84.3679C145.146 79.2787 144.261 74.4205 143.398 69.7045L141.892 61.4713C141.431 58.9496 139.216 57.3211 136.935 57.8304C134.659 58.3416 133.189 60.7999 133.65 63.3215L135.156 71.5547C136.032 76.3434 136.937 81.2954 136.745 85.9846C136.552 90.6944 135.194 94.6868 132.92 97.2277C128.613 102.039 116.702 103.902 111.316 100.605C108.863 99.1027 107.262 96.4979 107.03 93.6365C106.814 90.9602 107.799 88.4913 109.803 86.6846C111.604 85.0604 111.876 82.1264 110.41 80.1308C108.945 78.1352 106.297 77.8334 104.495 79.4582C100.318 83.2251 98.1886 88.6951 98.6544 94.4663C99.1348 100.416 102.347 105.759 107.249 108.76ZM180.156 69.8995C177.249 71.4262 172.486 72.0703 169.01 70.3461C167.317 69.5076 166.266 68.2406 165.796 66.4742C164.88 63.0321 167.506 59.6415 170.535 58.6341C171.519 58.3068 172.436 58.1422 173.293 58.1422C174.721 58.1422 175.982 58.5987 177.105 59.5155C179.414 61.3999 181.047 65.1674 181.509 69.4759C181.052 69.53 180.595 69.6691 180.156 69.8995Z" fill="#3D84B8"/>
<path d="M71.0528 34.2071C71.74 35.966 73.2883 37.0175 74.9144 37.0175C75.471 37.0175 76.0377 36.8939 76.582 36.6331C83.7553 33.1947 91.4982 28.7384 91.8244 28.5502C93.5929 27.531 94.4719 25.2758 93.9298 23.1504C93.3878 21.025 91.5694 19.6108 89.585 19.7704C83.9633 20.2132 80.6281 19.0605 79.6785 16.3432C78.952 14.2638 79.6628 12.9048 80.1505 12.28C80.8338 11.4043 82.1415 10.6155 83.7626 11.0279C86.0284 11.6005 88.2823 10.0354 88.8003 7.52739C89.3188 5.01942 87.9045 2.52014 85.6416 1.94562C81.2441 0.83076 76.7042 2.45368 73.7916 6.18335C70.9009 9.88506 70.1705 14.9414 71.837 19.7089C72.6442 22.0169 74.1145 24.4919 76.7749 26.3316C75.6011 26.9304 74.4099 27.5223 73.2423 28.0819C71.1111 29.1029 70.1307 31.8457 71.0528 34.2071Z" fill="#3D84B8"/>
</svg>
